<svg width="20" height="20" viewBox="0 0 20 20" fill="none" xmlns="http://www.w3.org/2000/svg">
<path d="M8.93117 0.521568C9.47405 -0.173856 10.526 -0.173856 11.0688 0.521568L14.6529 5.11268C14.7211 5.20013 14.7999 5.27887 14.8873 5.34713L19.4784 8.93117C20.1739 9.47405 20.1739 10.526 19.4784 11.0688L14.8873 14.6529C14.7999 14.7211 14.7211 14.7999 14.6529 14.8873L11.0688 19.4784C10.526 20.1739 9.47405 20.1739 8.93117 19.4784L5.34713 14.8873C5.27887 14.7999 5.20013 14.7211 5.11268 14.6529L0.521568 11.0688C-0.173856 10.526 -0.173856 9.47405 0.521568 8.93117L5.11268 5.34713C5.20013 5.27887 5.27887 5.20013 5.34713 5.11268L8.93117 0.521568Z" fill="url(#paint0_linear_23022_51388)"/>
<path d="M8.93117 0.521568C9.47405 -0.173856 10.526 -0.173856 11.0688 0.521568L14.6529 5.11268C14.7211 5.20013 14.7999 5.27887 14.8873 5.34713L19.4784 8.93117C20.1739 9.47405 20.1739 10.526 19.4784 11.0688L14.8873 14.6529C14.7999 14.7211 14.7211 14.7999 14.6529 14.8873L11.0688 19.4784C10.526 20.1739 9.47405 20.1739 8.93117 19.4784L5.34713 14.8873C5.27887 14.7999 5.20013 14.7211 5.11268 14.6529L0.521568 11.0688C-0.173856 10.526 -0.173856 9.47405 0.521568 8.93117L5.11268 5.34713C5.20013 5.27887 5.27887 5.20013 5.34713 5.11268L8.93117 0.521568Z" fill="url(#paint1_radial_23022_51388)"/>
<path d="M8.93117 0.521568C9.47405 -0.173856 10.526 -0.173856 11.0688 0.521568L14.6529 5.11268C14.7211 5.20013 14.7999 5.27887 14.8873 5.34713L19.4784 8.93117C20.1739 9.47405 20.1739 10.526 19.4784 11.0688L14.8873 14.6529C14.7999 14.7211 14.7211 14.7999 14.6529 14.8873L11.0688 19.4784C10.526 20.1739 9.47405 20.1739 8.93117 19.4784L5.34713 14.8873C5.27887 14.7999 5.20013 14.7211 5.11268 14.6529L0.521568 11.0688C-0.173856 10.526 -0.173856 9.47405 0.521568 8.93117L5.11268 5.34713C5.20013 5.27887 5.27887 5.20013 5.34713 5.11268L8.93117 0.521568Z" fill="url(#paint2_radial_23022_51388)" fill-opacity="0.3"/>
<path d="M8.93117 0.521568C9.47405 -0.173856 10.526 -0.173856 11.0688 0.521568L14.6529 5.11268C14.7211 5.20013 14.7999 5.27887 14.8873 5.34713L19.4784 8.93117C20.1739 9.47405 20.1739 10.526 19.4784 11.0688L14.8873 14.6529C14.7999 14.7211 14.7211 14.7999 14.6529 14.8873L11.0688 19.4784C10.526 20.1739 9.47405 20.1739 8.93117 19.4784L5.34713 14.8873C5.27887 14.7999 5.20013 14.7211 5.11268 14.6529L0.521568 11.0688C-0.173856 10.526 -0.173856 9.47405 0.521568 8.93117L5.11268 5.34713C5.20013 5.27887 5.27887 5.20013 5.34713 5.11268L8.93117 0.521568Z" fill="url(#paint3_radial_23022_51388)" fill-opacity="0.6"/>
<path d="M8.93117 0.521568C9.47405 -0.173856 10.526 -0.173856 11.0688 0.521568L14.6529 5.11268C14.7211 5.20013 14.7999 5.27887 14.8873 5.34713L19.4784 8.93117C20.1739 9.47405 20.1739 10.526 19.4784 11.0688L14.8873 14.6529C14.7999 14.7211 14.7211 14.7999 14.6529 14.8873L11.0688 19.4784C10.526 20.1739 9.47405 20.1739 8.93117 19.4784L5.34713 14.8873C5.27887 14.7999 5.20013 14.7211 5.11268 14.6529L0.521568 11.0688C-0.173856 10.526 -0.173856 9.47405 0.521568 8.93117L5.11268 5.34713C5.20013 5.27887 5.27887 5.20013 5.34713 5.11268L8.93117 0.521568Z" fill="url(#paint4_radial_23022_51388)"/>
<path d="M7.21541 6.0014C8.43852 3.83287 11.5615 3.83287 12.7846 6.0014C13.071 6.50919 13.4908 6.929 13.9986 7.21541C16.1671 8.43852 16.1671 11.5615 13.9986 12.7846C13.4908 13.071 13.071 13.4908 12.7846 13.9986C11.5615 16.1671 8.43852 16.1671 7.21541 13.9986C6.929 13.4908 6.50919 13.071 6.0014 12.7846C3.83287 11.5615 3.83287 8.43852 6.0014 7.21541C6.50919 6.929 6.929 6.50919 7.21541 6.0014Z" fill="url(#paint5_linear_23022_51388)"/>
<path d="M10.0225 7.8538C10.8035 7.0073 12.19 7.80782 11.8474 8.90742C11.7234 9.30562 11.8397 9.73967 12.1462 10.0225C12.9927 10.8035 12.1922 12.19 11.0926 11.8474C10.6944 11.7234 10.2603 11.8397 9.97751 12.1462C9.19653 12.9927 7.80998 12.1922 8.15258 11.0926C8.27664 10.6944 8.16034 10.2603 7.8538 9.97751C7.0073 9.19653 7.80782 7.80998 8.90742 8.15258C9.30562 8.27664 9.73967 8.16034 10.0225 7.8538Z" fill="white"/>
<defs>
<linearGradient id="paint0_linear_23022_51388" x1="10" y1="5" x2="3.75" y2="5.625" gradientUnits="userSpaceOnUse">
<stop stop-color="#6358DE"/>
<stop offset="1" stop-color="#4F46B2"/>
</linearGradient>
<radialGradient id="paint1_radial_23022_51388" cx="0" cy="0" r="1" gradientUnits="userSpaceOnUse" gradientTransform="translate(0.557547 8.06683) rotate(-28.8122) scale(19.6828 10.1597)">
<stop stop-color="#6358DE"/>
<stop offset="1" stop-color="#6358DE" stop-opacity="0"/>
</radialGradient>
<radialGradient id="paint2_radial_23022_51388" cx="0" cy="0" r="1" gradientUnits="userSpaceOnUse" gradientTransform="translate(-0.297227 9.6814) rotate(-41.7295) scale(14.1261 3.81994)">
<stop offset="0.230133" stop-color="#DBD9F7"/>
<stop offset="1" stop-color="#6358DE" stop-opacity="0"/>
</radialGradient>
<radialGradient id="paint3_radial_23022_51388" cx="0" cy="0" r="1" gradientUnits="userSpaceOnUse" gradientTransform="translate(15.4324 13.189) rotate(5.99343) scale(11.4854 17.2189)">
<stop offset="0.300528" stop-color="#78BEFF"/>
<stop offset="1" stop-color="#6358DE" stop-opacity="0"/>
</radialGradient>
<radialGradient id="paint4_radial_23022_51388" cx="0" cy="0" r="1" gradientUnits="userSpaceOnUse" gradientTransform="translate(1.84327 16.6387) rotate(-30.5101) scale(10.5237 8.11956)">
<stop stop-color="#453E9B"/>
<stop offset="0.791256" stop-color="#4F46B2" stop-opacity="0"/>
</radialGradient>
<linearGradient id="paint5_linear_23022_51388" x1="10" y1="7.05793" x2="15" y2="14.375" gradientUnits="userSpaceOnUse">
<stop stop-color="#B3AEEF"/>
<stop offset="1" stop-color="#BCDFFF"/>
</linearGradient>
</defs>
</svg>
